<?xml version="1.0" encoding="utf-8"?>
<!-- Generator: Adobe Illustrator 22.1.0, SVG Export Plug-In . SVG Version: 6.00 Build 0)  -->
<svg version="1.1" id="Layer_1" xmlns="http://www.w3.org/2000/svg" xmlns:xlink="http://www.w3.org/1999/xlink" x="0px" y="0px"
	 viewBox="0 0 1166.6 668.2" style="enable-background:new 0 0 1166.6 668.2;" xml:space="preserve">
<style type="text/css">
	.st0{fill:none;}
	.st1{fill:#625772;}
	.st2{fill:#A9EEE6;}
	.st3{fill:#FEFAEC;}
	.st4{fill:#F38181;}
</style>
<title>va-logo</title>
<path class="st0" d="M600.8,359c27.5-18.2,44.6-50.9,44.6-85c0-54.2-27.9-75.6-50.7-75.6c-16.8,0-29.3,5-37.7,17.1l0,0
	c-16.2,23.5-5.3,58.3,6.6,80.9C577.1,322.1,600.8,359,600.8,359z"/>
<path class="st0" d="M526.2,405l-0.1-0.2c-41,26.5-52.3,68.6-52.3,100.9c0,66.7,56.6,134.5,129.1,134.5l0,0
	c21.2,0,42.4-7.7,61.5-20.5c-43.5-67.2-48.5-75.2-138-214.2L526.2,405z"/>
<path class="st1" d="M542.2,28.8L542.2,28.8c8.1-4.8,18.7-7.1,40.1-8.3c3-0.2,5.4-1.9,5.4-4.9c0-0.1,0-0.1,0-0.2
	c0-2.7-2.2-4.8-4.8-4.8L453,10.6c-3,0-6.5,0.9-6.5,5c0,2.1,0.8,4.4,4.8,4.9c3,0.4,9.9,0.8,17.6,1.4c18.5,1.3,25.7,3.3,31,11
	c5,7.3,2.3,20.2-3.3,35.5s-155,401.1-155,401.1H341c-1.8-5.6-120.2-380.4-125.3-396.6c-5.1-16.2-7.2-27.6-4.5-33.8
	c4.8-11.4,14.5-15.4,38.5-17.1c3.3-0.2,4.7-0.3,7.8-0.6c3.1-0.3,5-2.9,4.3-6.5c-0.7-3.6-2.8-4.3-6.6-4.3H5.1c-2.7,0-4.9,2.1-5.1,4.7
	c-0.3,1.9,0.7,3.9,2.5,4.7c1.5,0.7,5.9,1.2,14.1,1.9c18.3,1.3,24.2,2.9,31,6.1c13.7,6.5,23.1,24.3,27.8,38.4
	c4.5,13.7,186,563.3,198.8,601.8h7.7C297.7,628.3,523,58.8,526.3,50.6C529.3,43.3,534,33.7,542.2,28.8z"/>
<path class="st1" d="M1161.5,658.5L1161.5,658.5c-1-0.2-4.6-0.6-10.1-1c-27.1-2.2-56.8-7.8-74.4-53.8
	c-5.7-14.8-228.5-596.5-230-600.4c-1.7-4.4-5.9-4.3-7.3,0.1c-1.3,3.8-60.3,180.1-60.3,180.1l153.7,426c2.7,7.9,5.3,15.8,5.3,21.8
	c0,7.6-5.1,16.3-13.7,20.4c-6.8,3.2-19.7,4.9-29.7,5.8c-2.9,0.2-5.8,0.5-8.6,1c-3.1,0.5-4.4,3.1-4.4,5.5c-0.1,1.7,0.8,3.3,2.2,4.2
	h280.1c1.3-0.8,2.2-2.3,2.2-3.8C1166.5,660.1,1164,658.9,1161.5,658.5z"/>
<path class="st1" d="M838.1,616.8L838.1,616.8c-5.3-1.7-8.6,1.6-12.5,10.9c-4.5,10.7-14.2,13.7-23.6,13.7
	c-17.5,0-35.1-20.2-48.2-40.7c-0.7-1.1-8.1-12.8-19.3-30.5c28.4-39.7,44.6-86.3,52-117c2.6-10.6,6.3-26.6,12-33.3
	c7.8-9.2,16.4-11.9,28.8-13.1c5.4-0.5,7.8-0.8,9.8-1.4c2.3-0.7,3.7-3,3.3-5.4c-0.2-2.4-2.2-4.3-4.7-4.2H727.6
	c-3.6,0-5.2,2.3-5.2,5.1c0,2.6,1.7,4.1,4.2,4.7c2.3,0.4,4.5,0.7,6.8,0.8c13.5,0.7,23.5,2.3,29.6,6.4c10,6.7,9,17.1,7.1,31.3
	c-4.2,31.7-20.2,78.5-43.5,113.7c-42.3-66.9-119.2-188.4-119.2-188.4s31.8-16.6,53.4-29.1c21.1-12.2,53.3-36.7,53.3-76.8
	c0-23.8-13.5-42.3-32-54.6c-19-12.7-47.5-22.8-79.8-22.8c-40.3,0-83.4,15-106.7,52.3c-22.5,36-16.7,88.6,9.8,132.6
	c7.1,11.9,15,23.9,15,23.9c-9.4,3.4-21.1,8.5-31,13c-53.6,25.1-99.1,71.9-99.1,136.2c0,59.4,36.4,109,104.4,124.2h93.2
	c30.3-6.3,59-19,84.1-37.2c13.6,18.5,36.9,33.1,69.6,37.2H776c33-5,58.2-25.1,65.4-42C842.9,622.8,842.1,618,838.1,616.8z
	 M556.9,215.5L556.9,215.5c8.4-12.1,20.9-17.1,37.7-17.1c22.8,0,50.7,21.5,50.7,75.6c0,34.1-17.1,66.8-44.6,85
	c0,0-23.7-36.9-37.3-62.7C551.6,273.8,540.7,238.9,556.9,215.5z M603,640.2L603,640.2c-72.5,0-129.1-67.7-129.1-134.4
	c0-32.3,11.3-74.4,52.3-100.9l0.1,0.2l0.3,0.4c89.5,139,94.5,147,138,214.2C645.4,632.5,624.2,640.2,603,640.2z"/>
<g>
	<rect x="1288" y="151" class="st2" width="114" height="80.7"/>
</g>
<g>
	<rect x="1353" y="365.3" class="st3" width="114" height="80.7"/>
</g>
<g>
	<rect x="1364" y="374.8" class="st4" width="114" height="80.7"/>
</g>
<g>
	<rect x="1375.1" y="387.5" class="st1" width="114" height="80.7"/>
</g>
</svg>
